<?xml version="1.0" encoding="UTF-8"?>
<svg viewBox="0 0 1600 1200" xmlns="http://www.w3.org/2000/svg">
 <defs>
  <filter id="a" color-interpolation-filters="sRGB">
   <feGaussianBlur stdDeviation="3.42208"/>
  </filter>
 </defs>
 <g transform="translate(-6 -34) matrix(5.3047 0 0 5.3047 -507.64 -648.95)">
  <path transform="matrix(.76998 0 0 .76998 -100.11 -3.3822)" d="m533.08 235.77l-6.287 1.796c-0.086-7e-3 -0.309 4e-3 -0.445 0-5.846-0.174-11.757 0.393-17.738 1.797-11.818 2.772-23.124 9.48-32.783 20.657-11.496-4.473-22.335-3.754-26.046 2.47l-3.593 6.062c-36.886-7.603-76.174 8.265-96.549 42.437-25.735 43.159-11.5 98.882 31.659 124.62 43.159 25.734 98.882 11.725 124.62-31.435 20.391-34.199 15.745-76.244-8.533-105.08l3.593-6.062c3.385-5.672-0.087-14.443-7.859-22.005 6.277-6.647 12.884-10.234 19.984-11.899 4.112-0.965 8.54-1.148 13.022-0.899l6.737 3.144 1.122-4.94 3.817-2.47-4.041-6.062 4.939-6.512-5.164-0.898-0.445-4.715-0.01-6e-3z" fill-rule="evenodd" stroke="#000" stroke-width="9.1244"/>
  <path d="m289.52 307.83a70.058 70.058 30.806 1 1 -120.34 -71.757 70.058 70.058 30.806 1 1 120.34 71.757z" fill="#302d2e" fill-rule="evenodd" stroke="#000" stroke-width="1.0103"/>
  <path transform="matrix(.76998 0 0 .76998 -100.11 -3.3822)" d="m483.68 263.83c-14.131-8.426-29.279-8.947-33.834-1.308l-8.893 14.843c-4.558 7.636 3.178 20.597 17.31 29.023s29.329 9.141 33.883 1.501l8.893-14.843c4.558-7.637-3.226-20.79-17.358-29.216h-1e-3z" fill="#333031" fill-rule="evenodd" stroke="#000" stroke-width="4.5553"/>
  <path transform="matrix(.76998 0 0 .76998 -100.11 -3.3822)" d="m451.26 259.99l-8.082 13.697c-0.748 0.029-1.555-0.117-2.254-0.029-4.597 0.563-8.156 2.317-10.078 5.213-5.131 7.722 3.636 20.895 19.597 29.447 13.962 7.482 28.813 8.954 35.735 4.025-3.653 1.19-8.479 1.014-13.666-0.192 0-0.043-0.072-0.099 0-0.15l8.982-17.489c-2.591-0.686-5.301-1.716-7.99-2.931l-8.136 17.36-10.221-4.654 8.852-18.195c-11.155-8.285-16.77-19.343-12.739-26.108v6e-3zm-73.237 27.153c-9.559 6.752-17.945 15.592-24.326 26.291-24.398 40.924-11.02 93.827 29.903 118.23 23.975 14.295 52.08 15.447 76.154 5.862-14.147-1.704-28.206-6.199-41.234-13.967-47.33-28.221-64.302-87.79-40.497-136.42z" fill-opacity=".48936" fill-rule="evenodd"/>
  <path transform="matrix(2.6757 -2.2122 2.2122 2.6757 -4286.5 5144)" d="m1912.2-248.9a4.1037 5.3664 0 1 1 -8.2075 0 4.1037 5.3664 0 1 1 8.2075 0z" fill="#fff" fill-opacity=".92021" fill-rule="evenodd"/>
  <path transform="matrix(1.5761 -1.303 1.303 1.5761 -2414.9 3165.1)" d="m1912.2-248.9a4.1037 5.3664 0 1 1 -8.2075 0 4.1037 5.3664 0 1 1 8.2075 0z" fill="#fff" fill-opacity=".92021" fill-rule="evenodd"/>
  <path d="m272.31 199.76c-10.881-6.487-22.544-6.889-26.052-1.007l-6.847 11.429c-3.51 5.88 2.447 15.859 13.328 22.347 10.882 6.488 22.583 7.039 26.09 1.156l6.847-11.429c3.51-5.88-2.484-16.008-13.365-22.496h-1e-3z" fill="none" stroke="#000" stroke-width="4.5553"/>
  <path transform="matrix(.76998 0 0 .76998 -100.11 -3.3822)" d="m513.1 259.12c-10.479 2.458-19.946 8.675-28.74 23.576l-0.675 0.898c-1.978 1.922-6.827 1.499-11.227-1.123-4.481-2.671-6.971-6.565-6.062-9.205 0.251-0.429 0.898-1.572 0.898-1.572 11.069-18.362 25.835-28.701 41.314-32.333 5.981-1.403 11.892-1.97 17.738-1.796 0.143 4e-3 0.294-6e-3 0.381 2e-3l6.264-1.691 0.561 4.563 5.193 1.031-5.017 6.514 4.135 6.021-3.995 2.477-1.123 4.928-6.637-3.114c-4.483-0.249-8.899-0.141-13.011 0.824h3e-3z" fill="#ccab7f" fill-rule="evenodd" stroke="#000" stroke-width="4.5553"/>
  <path transform="matrix(.76998 0 0 .76998 -100.11 -3.3822)" d="m475.41 261.18c-0.28021 12.349 5.4441 19.469 8.9813 20.208" fill="none" stroke="#000" stroke-linecap="round" stroke-opacity=".68617" stroke-width="2.2811"/>
  <path transform="matrix(.76998 0 0 .76998 -100.11 -3.3822)" d="m486.06 251.84c-1.8782 12.208 2.8747 20.011 6.2869 21.202" fill="none" stroke="#000" stroke-linecap="round" stroke-opacity=".68617" stroke-width="2.2811"/>
  <path transform="matrix(.76998 0 0 .76998 -100.11 -3.3822)" d="m498.36 243.31c-4.199 11.616-1.0411 20.189 2.0772 22.016" fill="none" stroke="#000" stroke-linecap="round" stroke-opacity=".68617" stroke-width="2.2811"/>
  <path transform="matrix(.76998 0 0 .76998 -100.11 -3.3822)" d="m511.77 238.56c-6.3013 10.624-4.8054 19.637-2.088 22.015" fill="none" stroke="#000" stroke-linecap="round" stroke-opacity=".68617" stroke-width="2.2811"/>
  <path transform="matrix(.76998 0 0 .76998 -100.11 -3.3822)" d="m533.08 235.77l-6.063 1.796a1.1407 1.1407 0 0 0 0 -0.224 1.1407 1.1407 0 0 0 0 -0.224 1.1407 1.1407 0 0 0 0 -0.224 1.1407 1.1407 0 0 0 -0.223 -0.224 1.1407 1.1407 0 0 0 -0.222 -0.225 1.1407 1.1407 0 0 0 -0.223 -0.224 1.1407 1.1407 0 0 0 -0.223 0 1.1407 1.1407 0 0 0 -0.222 0 1.1407 1.1407 0 0 0 -0.223 0 1.1407 1.1407 0 0 0 -0.223 0.224 1.1407 1.1407 0 0 0 -0.223 0 1.1407 1.1407 0 0 0 -0.222 0.225c-0.266 0.296-0.424 0.602-0.676 0.898-1.195 0.05-2.382 0.161-3.592 0.224l0.675 1.796c-0.984 0.088-1.641 0.478-2.47 0.898-3.281 1.666 0.596 1.223 1.123 2.246 0.1 0.145-2.602 1.059-2.695 1.347-0.287 0.871 0.912 2.572 0.676 3.368-0.302 0.94-2.213 1.235-2.47 2.021-0.258 0.8 0.895 1.807 2.022 2.694-0.388 3.095-0.101 5.6 1.122 7.185a1.1407 1.1407 0 0 0 0.223 0.224 1.1407 1.1407 0 0 0 0.222 0 1.1407 1.1407 0 0 0 0.223 0.225 1.1407 1.1407 0 0 0 0.223 0 1.1407 1.1407 0 0 0 0.223 0 1.1407 1.1407 0 0 0 0.222 -0.225 1.1407 1.1407 0 0 0 0.223 0 1.1407 1.1407 0 0 0 0.223 -0.224 1.1407 1.1407 0 0 0 0.222 -0.224 1.1407 1.1407 0 0 0 0 -0.224 1.1407 1.1407 0 0 0 0 -0.224 1.1407 1.1407 0 0 0 0 -0.225 1.1407 1.1407 0 0 0 0 -0.224 1.1407 1.1407 0 0 0 -0.222 -0.224c-0.288-0.371-0.525-1.131-0.676-2.021 0.568 0.193 2.354 0.896 2.471 1.123 0.215 0.422 0.467 0.714 0.675 1.123 1.035 0.014 2.098-0.058 3.143 0l6.736 3.143 1.123-4.939 3.816-2.47-4.04-6.063 4.938-6.511-5.163-0.898-0.446-4.716-7e-3 -3e-3z" fill-opacity=".68627"/>
  <g transform="rotate(21.635 319.28 189.2) matrix(.24059 .22802 -.22199 .2369 -86.713 311.9)" fill-rule="evenodd">
   <path d="m718.8-1014.3l-59.895-64.69 6.769 45.1-31.846-60.99-18.293 51.55-2.229-54.04-91.399 119.2 60.136-118.52-64.72 17.52 62.54-49.84-44.982-9.94 45.245-10.66-97.426-43.93 104.79 23.43-32.361-39.29 41.462 17.33-4.566-48.69 30.643 48.5 17.89-98.7 5.758 98.68 36.338-39.11-3.998 29.42 50.732-30.04-53.552 71.36 79.291-1.3-57.554 25.9 100.93 60.74-129.49-41.73 49.787 102.74z" fill="#a00" stroke="#800000" stroke-width="3"/>
   <path d="m641.12-1257.8l-13.562 66.56a5.0051 5.0051 0 0 1 -9.125 1.69l-19.5-30.87 2.625 27.9a5.0051 5.0051 0 0 1 -7.188 4.94l-28.5-14.22 25.344 28.37a5.0051 5.0051 0 0 1 -4.812 8.22l-70.375-15.56 65.969 26.53a5.0051 5.0051 0 0 1 -0.531 9.47l-29.531 8.22 28.406 2.59a5.0051 5.0051 0 0 1 2.656 8.88l-43.625 34.75 41.344-11.19a5.0051 5.0051 0 0 1 5.781 7.09l-35.719 70.41 58.562-76.37a5.0051 5.0051 0 0 1 8.969 2.81l1.156 28.22 9.656-27.19a5.0051 5.0051 0 0 1 9.157 -0.63l18.031 34.54-2.344-15.6a5.0051 5.0051 0 0 1 8.594 -4.16l37.094 40.07-35.156-72.5a5.0051 5.0051 0 0 1 5.562 -7.07l91.531 19.88-66.062-29.47a5.0051 5.0051 0 0 1 -0.031 -9.12l35.406-15.91-54.969 0.91a5.0051 5.0051 0 0 1 -3.969 -8.19l53.562-65.28-43.969 31.22a5.0051 5.0051 0 0 1 -7.875 -4.79l1.875-13.75-25.594 27.54a5.0051 5.0051 0 0 1 -8.656 -3.41l-0.188-65.53h1e-3z" fill="#e44f30" filter="url(#a)"/>
   <path d="m637.72-1223.6l-6.719 33a8.5144 8.5144 0 0 1 -15.531 2.84l-11.656-18.47 1.25 13.35a8.5144 8.5144 0 0 1 -12.281 8.41l-12.031-6 13.094 14.65a8.5144 8.5144 0 0 1 -8.187 14l-28.844-6.37 26.5 10.65a8.5144 8.5144 0 0 1 -0.907 16.1l-11.094 3.09 9.344 0.84a8.5144 8.5144 0 0 1 4.531 15.13l-30.406 24.22 25.031-6.78a8.5144 8.5144 0 0 1 9.813 12.06l-18.531 36.56 35.469-46.28a8.5144 8.5144 0 0 1 15.25 4.84l0.406 10.1 3.594-10.1a8.5144 8.5144 0 0 1 15.562 -1.09l9.281 17.75a8.5144 8.5144 0 0 1 14.5 -3.72l21.031 22.72-24.844-51.25a8.5144 8.5144 0 0 1 9.469 -12.03l58.219 12.65-34.938-15.59a8.5144 8.5144 0 0 1 -0.031 -15.53l19.875-8.94-37.938 0.63a8.5144 8.5144 0 0 1 -6.75 -13.91l36.969-45.06-22.625 16.06a8.5144 8.5144 0 0 1 -13.375 -8.09l0.375-2.78-18.031 19.4a8.5144 8.5144 0 0 1 -14.75 -5.75l-0.094-31.31z" fill="#fc0" filter="url(#a)"/>
   <path d="m667-1190l-8.438 9.06a16.742 16.742 0 0 1 -24.062 0.44 16.742 16.742 0 0 1 -24.812 -1.25 16.742 16.742 0 0 1 -6.781 5.13 16.742 16.742 0 0 1 -7.156 21 16.742 16.742 0 0 1 -2.594 16.4 16.742 16.742 0 0 1 -2.844 23.25l-3.875 3.09a16.742 16.742 0 0 1 10.75 8.97l2.844-3.72a16.742 16.742 0 0 1 25.125 -1.62 16.742 16.742 0 0 1 23.531 6.56l4.188 8.03a16.742 16.742 0 0 1 7.906 -1.03l-6.844-14.09a16.742 16.742 0 0 1 18.625 -23.66l8.938 1.94a16.742 16.742 0 0 1 1.343 -12.56l-6.718 0.12a16.742 16.742 0 0 1 -13.219 -27.37l11.875-14.47a16.742 16.742 0 0 1 -7.8 -4.1l0.018-0.12z" fill="#fc0" filter="url(#a)"/>
  </g>
 </g>
</svg>
